<?xml version="1.0" encoding="UTF-8" standalone="no"?>
    <svg
       width="512mm"
       height="512mm"
       viewBox="0 0 512 512"
       version="1.1"
       id="svg1">
        <path
           style="fill:#000000"
           d="m 206.5,440.06752 c -6.30392,-0.42654 -9.98039,-1.1956 -12.27271,-2.56727 -3.62479,-2.16897 -7.58491,-7.35908 -9.24192,-12.11238 -0.84558,-2.42563 -1.9946,-3.37334 -5.28299,-4.35739 -5.70071,-1.70593 -14.12931,-6.04395 -23.02032,-11.84806 -5.34431,-3.48881 -10.14078,-5.60047 -17.28914,-7.61162 C 133.95181,400.03998 125.675,397.22288 121,395.31057 110.33995,390.95008 91.028652,380.79636 84.701075,376.2249 72.78421,367.61536 70.336934,351.75183 79.061779,339.67032 86.254793,329.70997 101.62486,324.43388 114.75,327.4196 l 3.25,0.73931 0.003,-5.32945 c 0.0118,-19.7363 10.27002,-48.22912 24.10514,-66.95365 4.87973,-6.60427 17.44764,-19.22831 22.32316,-22.42287 1.41268,-0.92563 2.56851,-1.99231 2.56851,-2.37041 0,-0.37809 -2.18328,-1.47254 -4.85174,-2.4321 -7.18533,-2.58381 -21.77217,-12.38957 -30.11603,-20.24499 C 127.99809,204.60745 121.80093,197.675 118.26076,193 97.888372,166.0971 93.522723,136.3708 106.28824,111.47752 c 6.73896,-13.141237 21.17833,-25.359741 35.1725,-29.762748 8.3731,-2.63444 24.096,-3.036377 32.03926,-0.81904 8.11392,2.26498 21.43791,9.590304 30.00893,16.498441 10.6365,8.572897 30.11761,27.718257 35.36962,34.760057 l 4.21712,5.65423 15.70217,-0.53234 c 11.89546,-0.40328 18.49012,-0.11965 27.20216,1.16995 11.00797,1.62946 11.73062,1.62424 16.89024,-0.12189 6.64292,-2.24812 11.9382,-7.8743 22.89356,-24.32418 13.32135,-20.002504 21.30936,-25.980461 34.7162,-25.980461 11.97909,0 20.65203,5.315667 27.46449,16.833071 13.08695,22.12527 10.76973,59.91983 -5.72627,93.39739 l -4.80429,9.75 h 5.83269 c 6.44838,0 9.88691,1.39834 13.91976,5.66072 3.35207,3.54286 4.81362,7.32126 4.81362,12.44422 0,4.53727 -2.98965,11.07397 -6.04296,13.2126 -2.03092,1.42251 -2.004,1.49032 1.43621,3.61648 9.24925,5.71636 11.09859,18.57428 3.9017,27.1273 C 398.4956,273.38816 394.08761,276 391.27228,276 c -1.00487,0 -3.4785,1.42276 -5.49695,3.1617 l -3.66991,3.16169 4.32022,4.80513 c 6.89783,7.67204 7.96911,16.76081 2.88937,24.51347 -2.04111,3.11513 -7.84445,6.59636 -12.1679,7.29912 -3.22313,0.5239 -3.63921,0.99299 -4.93661,5.56551 -0.77925,2.74636 -1.78588,11.51838 -2.23696,19.49338 -0.88618,15.66735 -2.99832,25.09183 -7.93069,35.38704 l -2.82044,5.88703 3.36262,4.40527 c 6.22609,8.15663 8.26692,21.64647 4.52216,29.8914 -2.45926,5.41461 -8.25049,10.021 -14.50789,11.53972 -6.81315,1.65359 -30.72205,1.41054 -42.31905,-0.43022 -5.5351,-0.87857 -11.78147,-2.66219 -15.62966,-4.46298 l -6.40991,-2.99955 -7.87034,1.88334 c -4.3884,1.05013 -11.5214,1.8868 -16.12294,1.89115 l -8.25261,0.008 -3.74739,4.15287 C 247.92282,435.94537 243.69386,438 238.15424,438 c -2.15049,0 -5.52549,0.675 -7.5,1.5 -3.68202,1.53845 -8.22659,1.64523 -24.15424,0.56752 z"
        />
    </svg>
